<svg xmlns="http://www.w3.org/2000/svg" width="28" height="24" viewBox="0 0 28 24">
  <g id="CameraWhite" transform="translate(-2 -4)">
    <path id="Path_11504" data-name="Path 11504" d="M23,9,21.6,6.1A1.889,1.889,0,0,0,19.8,5H12.3a1.889,1.889,0,0,0-1.8,1.1L9,9H5a2.006,2.006,0,0,0-2,2V25a2.006,2.006,0,0,0,2,2H27a2.006,2.006,0,0,0,2-2V11a2.006,2.006,0,0,0-2-2Z" fill="none" stroke="#fff" stroke-linejoin="round" stroke-miterlimit="10" stroke-width="2"/>
    <circle id="Ellipse_421" data-name="Ellipse 421" cx="6" cy="6" r="6" transform="translate(10 11)" fill="none" stroke="#fff" stroke-linejoin="round" stroke-miterlimit="10" stroke-width="2"/>
    <line id="Line_61" data-name="Line 61" x2="3" transform="translate(5 12)" fill="none" stroke="#fff" stroke-linejoin="round" stroke-miterlimit="10" stroke-width="2"/>
  </g>
</svg>
