<svg xmlns="http://www.w3.org/2000/svg" xmlns:xlink="http://www.w3.org/1999/xlink" width="100" height="103" viewBox="0 0 100 103">
  <defs>
    <filter id="Ellipse_46" x="0" y="3" width="100" height="100" filterUnits="userSpaceOnUse">
      <feOffset dy="5" input="SourceAlpha"/>
      <feGaussianBlur stdDeviation="3" result="blur"/>
      <feFlood flood-opacity="0.161"/>
      <feComposite operator="in" in2="blur"/>
      <feComposite in="SourceGraphic"/>
    </filter>
  </defs>
  <g id="EditUserImage" transform="translate(-72 -175)">
    <g id="User_Image" data-name="User Image" transform="translate(81 182)">
      <g transform="matrix(1, 0, 0, 1, -9, -7)" filter="url(#Ellipse_46)">
        <circle id="Ellipse_46-2" data-name="Ellipse 46" cx="41" cy="41" r="41" transform="translate(9 7)" fill="#e7f0ff"/>
      </g>
      <path id="Icon_awesome-user-alt" data-name="Icon awesome-user-alt" d="M18.9,21.26A10.63,10.63,0,1,0,8.268,10.63,10.633,10.633,0,0,0,18.9,21.26Zm9.449,2.362H24.279a12.85,12.85,0,0,1-10.763,0H9.449A9.448,9.448,0,0,0,0,33.071v1.181A3.544,3.544,0,0,0,3.543,37.8H34.253A3.544,3.544,0,0,0,37.8,34.253V33.071A9.448,9.448,0,0,0,28.347,23.622Z" transform="translate(21.6 22.5)" fill="#fff"/>
    </g>
    <circle id="Ellipse_418" data-name="Ellipse 418" cx="17.5" cy="17.5" r="17.5" transform="translate(136 175)" fill="#0064fe"/>
    <g id="icon-edit" transform="translate(136 175)">
      <rect id="Rectangle_158" data-name="Rectangle 158" width="35" height="35" fill="#fff" opacity="0"/>
      <path id="Icon_material-edit" data-name="Icon material-edit" d="M4.5,15.58V18.5H7.416l8.6-8.6L13.1,6.979ZM18.273,7.64a.774.774,0,0,0,0-1.1l-1.82-1.82a.774.774,0,0,0-1.1,0L13.933,6.147l2.916,2.916L18.273,7.64Z" transform="translate(6.286 6.004)" fill="#fff"/>
    </g>
  </g>
</svg>
