<svg xmlns="http://www.w3.org/2000/svg" width="73" height="73" viewBox="0 0 73 73">
  <g id="Pin" transform="translate(-274.703 -407.703)">
    <circle id="Ellipse_396" data-name="Ellipse 396" cx="36.5" cy="36.5" r="36.5" transform="translate(274.703 407.703)" fill="rgba(0,0,0,0.07)"/>
    <g id="marker" transform="translate(300.272 413.625)">
      <path id="Path_3868" data-name="Path 3868" d="M120,160h3.145v25.157a1.572,1.572,0,0,1-3.145,0Zm0,0" transform="translate(-112.138 -144.277)"/>
      <path id="Path_3869" data-name="Path 3869" d="M58.868,9.434A9.434,9.434,0,1,1,49.434,0,9.434,9.434,0,0,1,58.868,9.434Zm0,0" transform="translate(-40)" fill="#fff"/>
      <path id="Path_3870" data-name="Path 3870" d="M84.579,38.289A6.289,6.289,0,1,1,78.289,32,6.289,6.289,0,0,1,84.579,38.289Zm0,0" transform="translate(-68.855 -28.855)" fill="#349dee"/>
    </g>
  </g>
</svg>
