<svg xmlns="http://www.w3.org/2000/svg" width="30.578" height="29.39" viewBox="0 0 30.578 29.39">
  <g id="Seat_Icons" data-name="Seat Icons" transform="translate(2 5)">
    <g id="Outlined" transform="translate(-2 -5)">
      <g id="Social" transform="translate(0 0)">
        <g id="Outlined-_-Social-_-people" data-name="Outlined-/-Social-/-people" transform="translate(0)">
          <g id="Group_3326" data-name="Group 3326">
            <path id="Path" d="M0,0H30.578V29.39H0Z" fill="none" fill-rule="evenodd"/>
            <path id="_-Icon-Color" data-name="🔹-Icon-Color" d="M11.3,17.119c-3.11,0-9.3,1.62-9.3,4.848V24.39H20.6V21.966C20.6,18.739,14.412,17.119,11.3,17.119ZM5.11,21.62A12.423,12.423,0,0,1,11.3,19.889a12.423,12.423,0,0,1,6.193,1.731ZM11.3,14.7a4.758,4.758,0,0,0,4.651-4.848A4.758,4.758,0,0,0,11.3,5,4.758,4.758,0,0,0,6.651,9.848,4.758,4.758,0,0,0,11.3,14.7Zm0-6.925A2.079,2.079,0,1,1,9.309,9.848,2.034,2.034,0,0,1,11.3,7.77ZM20.657,17.2a5.861,5.861,0,0,1,2.6,4.764V24.39h5.316V21.966C28.578,19.169,23.926,17.576,20.657,17.2ZM19.275,14.7a4.758,4.758,0,0,0,4.651-4.848A4.758,4.758,0,0,0,19.275,5a4.427,4.427,0,0,0-1.993.485,7.826,7.826,0,0,1,0,8.726A4.427,4.427,0,0,0,19.275,14.7Z" fill="#1d1d1d" fill-rule="evenodd"/>
          </g>
        </g>
      </g>
    </g>
  </g>
</svg>
