<svg id="Left_Arrow_Icon" data-name="Left Arrow Icon" xmlns="http://www.w3.org/2000/svg" width="44" height="44" viewBox="0 0 44 44">
  <rect id="Rectangle_5" data-name="Rectangle 5" width="44" height="44" fill="rgba(255,255,255,0.98)" opacity="0"/>
  <path id="icon-arrow-left" d="M9.194,17.2,8.4,17.99a.854.854,0,0,1-1.211,0L.248,11.052a.854.854,0,0,1,0-1.211L7.19,2.9A.854.854,0,0,1,8.4,2.9l.793.793a.858.858,0,0,1-.014,1.225l-4.3,4.1H15.139A.855.855,0,0,1,16,9.873v1.143a.855.855,0,0,1-.857.857H4.876l4.3,4.1A.852.852,0,0,1,9.194,17.2Z" transform="translate(14.003 11.353)" fill="rgba(255,255,255,0.98)"/>
</svg>
