<svg xmlns="http://www.w3.org/2000/svg" width="16.873" height="24.559" viewBox="0 0 16.873 24.559">
  <g id="Account_Icon" data-name="Account Icon" transform="translate(-29.018 -19.101)">
    <g id="Layer_1" data-name="Layer 1" transform="translate(27.648 17.908)">
      <path id="Path_11497" data-name="Path 11497" d="M11.243,32H5.62C2.514,32,0,34.8,0,38.265v5.219a1.082,1.082,0,0,0,.451.958.857.857,0,0,0,.971,0,1.082,1.082,0,0,0,.451-.958V38.265a3.989,3.989,0,0,1,3.75-4.178h5.623a3.989,3.989,0,0,1,3.75,4.178v5.219a1.082,1.082,0,0,0,.451.958.857.857,0,0,0,.971,0,1.082,1.082,0,0,0,.451-.958V38.265C16.866,34.8,14.348,32,11.243,32Z" transform="translate(1.375 -18.842)" fill="#fff"/>
      <path id="Path_11498" data-name="Path 11498" d="M15.7,10.733a5.21,5.21,0,0,0,5.038-5.369A5.211,5.211,0,0,0,15.705-.01,5.211,5.211,0,0,0,10.67,5.361,5.215,5.215,0,0,0,15.7,10.733Zm0-8.593a3.125,3.125,0,0,1,3.019,3.221A3.125,3.125,0,0,1,15.7,8.583a3.125,3.125,0,0,1-3.019-3.221A3.125,3.125,0,0,1,15.7,2.14Z" transform="translate(-6.526 1.203)" fill="#fff"/>
    </g>
  </g>
</svg>
