<svg xmlns="http://www.w3.org/2000/svg" width="25.174" height="30.726" viewBox="0 0 25.174 30.726">
  <g id="Lock_Icon" data-name="Lock Icon" transform="translate(-5.5 -2.5)">
    <g id="icon-114-lock" transform="translate(6 3)">
      <path id="lock" d="M17.511,23.824v2.856a.577.577,0,0,0,1.151,0V23.824a1.659,1.659,0,0,0,1.151-1.557,1.728,1.728,0,0,0-3.453,0,1.659,1.659,0,0,0,1.151,1.557Zm-1.151.645v2.2a1.728,1.728,0,0,0,3.453,0v-2.2a2.711,2.711,0,0,0,1.151-2.2,2.881,2.881,0,0,0-5.756,0,2.711,2.711,0,0,0,1.151,2.2ZM9.453,15.111V11.256A8.451,8.451,0,0,1,18.087,3a8.457,8.457,0,0,1,8.633,8.256v3.854a3.389,3.389,0,0,1,3.453,3.313V29.413a3.383,3.383,0,0,1-3.463,3.313H9.463A3.39,3.39,0,0,1,6,29.413V18.424a3.383,3.383,0,0,1,3.453-3.313Zm1.151,0V11.25A7.322,7.322,0,0,1,18.087,4.1a7.327,7.327,0,0,1,7.482,7.149v3.861H24.418V11.267A6.207,6.207,0,0,0,18.087,5.2a6.2,6.2,0,0,0-6.331,6.065v3.843Zm2.3,0V11.258A5.067,5.067,0,0,1,18.087,6.3a5.075,5.075,0,0,1,5.18,4.955v3.852Zm-3.456,1.1a2.255,2.255,0,0,0-2.3,2.208v11a2.253,2.253,0,0,0,2.3,2.208H26.723a2.255,2.255,0,0,0,2.3-2.208v-11a2.253,2.253,0,0,0-2.3-2.208Z" transform="translate(-6 -3)" stroke="#0e0d0d" stroke-width="1" fill-rule="evenodd"/>
    </g>
  </g>
</svg>
