<svg xmlns="http://www.w3.org/2000/svg" width="62.9" height="60.8" viewBox="0 0 62.9 60.8">
  <g id="Report_Icon" data-name="Report Icon" transform="translate(-33.472 86.137)">
    <path id="XMLID_170_" d="M355.9,128h52L345,67.2v51.3C345,123.5,350.1,128,355.9,128Z" transform="translate(-311.528 -153.337)" fill="none"/>
    <path id="XMLID_174_" d="M80.1,46.579c-.212,0-.384-1.125-.384-2.513V40.13l-1.636-.03c-.042,0-.079.238-.079.507V61.468c0,.263.04.517.082.517h2.56c.043,0,.069-.263.069-.517V46.579Zm-.271,4c.083,0,.151.456.151,1.013s-.068,1.013-.151,1.013H78.506c-.083,0-.151-.456-.151-1.013s.068-1.013.151-1.013ZM78.5,46.529h.876c.083,0,.151.456.151,1.013s-.068,1.013-.151,1.013H78.5c-.083,0-.151-.456-.151-1.013S78.415,46.529,78.5,46.529ZM80.205,56.66h-1.7c-.083,0-.151-.456-.151-1.013s.068-1.013.151-1.013h1.7c.083,0,.151.456.151,1.013S80.288,56.66,80.205,56.66Z" transform="translate(-5.038 -106.422)" fill="none"/>
    <path id="XMLID_488_" d="M59.678,6.626,53.531.7A2.034,2.034,0,0,0,52.122.13L40.546.1A2.532,2.532,0,0,0,38,2.616v20.72a2.582,2.582,0,0,0,2.571,2.521H57.693a2.5,2.5,0,0,0,2.48-2.526V7.828A1.652,1.652,0,0,0,59.678,6.626Zm-6.172-3.15,3.177,3.059H54.057a.535.535,0,0,1-.551-.483Zm4.187,20.368H40.571a.559.559,0,0,1-.551-.513V2.616a.53.53,0,0,1,.525-.5l10.94.03v3.91a2.537,2.537,0,0,0,2.571,2.5h4.1V23.331A.486.486,0,0,1,57.693,23.844Z" transform="translate(28.643 -67.557)"/>
    <path id="XMLID_490_" d="M125,248.036c0,.57.34,1.036.756,1.036h6.613c.416,0,.756-.466.756-1.036s-.34-1.036-.756-1.036h-6.613C125.34,247,125,247.466,125,248.036Z" transform="translate(-54.095 -304.81)"/>
    <path id="XMLID_490_2" data-name="XMLID_490_" d="M125,248.069a1.056,1.056,0,0,0,1.035,1.069h9.058a1.07,1.07,0,0,0,0-2.139h-9.058A1.056,1.056,0,0,0,125,248.069Z" transform="translate(-54.337 -300.591)"/>
    <path id="XMLID_490_3" data-name="XMLID_490_" d="M125,248.285a1.3,1.3,0,0,0,1.315,1.285h11.5a1.285,1.285,0,1,0,0-2.57h-11.5A1.3,1.3,0,0,0,125,248.285Z" transform="translate(-54.337 -295.871)"/>
    <path id="XMLID_492_" d="M125,327h0v40h0V327Z" transform="translate(-66.084 -402.737)"/>
  </g>
</svg>
