<svg xmlns="http://www.w3.org/2000/svg" width="23.228" height="22.721" viewBox="0 0 23.228 22.721">
  <g id="Reservation_Icon" data-name="Reservation Icon" transform="translate(-3.19 -1.561)">
    <path id="Path_11499" data-name="Path 11499" d="M24.228,9.994V3.367H20.356V1h-.968V3.367H5.839V1H4.871V3.367H1V23.721H24.228ZM1.968,4.314h2.9V6.68h.968V4.314H19.388V6.68h.968V4.314h2.9V9.047H1.968Zm0,18.461V9.994H23.26V22.775Z" transform="translate(2.19 0.561)" fill="#fff"/>
    <path id="Path_11500" data-name="Path 11500" d="M6,34.911H25.094V24H6Zm1-3.273h2.01V33.82H7Zm14.07-1.091h-2.01V28.364h2.01Zm1-2.182h2.01v2.182h-2.01Zm-9.045,3.273h2.01V33.82h-2.01Zm-1,2.182H10.02V31.638h2.01Zm3.015-3.273h-2.01V28.364h2.01Zm1-2.182h2.01v2.182H16.05Zm0,3.273h2.01V33.82H16.05Zm3.015,0h2.01V33.82h-2.01Zm0-4.364V25.091h2.01v2.182Zm-1,0H16.05V25.091h2.01Zm-3.015,0h-2.01V25.091h2.01Zm-3.015,0H10.02V25.091h2.01Zm0,1.091v2.182H10.02V28.364ZM9.015,30.547H7V28.364h2.01ZM22.079,33.82V31.638h2.01V33.82Zm2.01-6.547h-2.01V25.091h2.01ZM9.015,25.091v2.182H7V25.091Z" transform="translate(-0.743 -12.705)" fill="#fff"/>
  </g>
</svg>
