<svg xmlns="http://www.w3.org/2000/svg" width="18.721" height="19.459" viewBox="0 0 18.721 19.459">
  <g id="Setting_Icon" data-name="Setting Icon" transform="translate(-2.968 -2)">
    <circle id="XMLID_224_" cx="4" cy="4" r="4" transform="translate(8.328 7.73)" fill="none" stroke="#fff" stroke-linecap="round" stroke-linejoin="round" stroke-miterlimit="10" stroke-width="2"/>
    <path id="XMLID_242_" d="M20.5,7.946,19.8,6.783a1.416,1.416,0,0,0-1.9-.492l-.365.2a2.085,2.085,0,0,1-3.126-1.745V4.343A1.366,1.366,0,0,0,13.023,3H11.634a1.366,1.366,0,0,0-1.389,1.343v.408A2.085,2.085,0,0,1,7.118,6.5l-.365-.2a1.416,1.416,0,0,0-1.9.492L4.16,7.946a1.319,1.319,0,0,0,.509,1.835l.365.2a1.981,1.981,0,0,1,0,3.489l-.365.2a1.319,1.319,0,0,0-.509,1.835l.695,1.163a1.416,1.416,0,0,0,1.9.492l.365-.2a2.085,2.085,0,0,1,3.126,1.745v.408a1.366,1.366,0,0,0,1.389,1.343h1.389a1.366,1.366,0,0,0,1.389-1.343v-.408a2.085,2.085,0,0,1,3.126-1.745l.365.2a1.416,1.416,0,0,0,1.9-.492l.695-1.163a1.319,1.319,0,0,0-.509-1.835l-.365-.2a1.981,1.981,0,0,1,0-3.489l.365-.2A1.318,1.318,0,0,0,20.5,7.946Z" fill="none" stroke="#fff" stroke-linecap="round" stroke-linejoin="round" stroke-miterlimit="10" stroke-width="2"/>
  </g>
</svg>
